<svg width="50" height="50" viewBox="0 0 50 50" fill="none" xmlns="http://www.w3.org/2000/svg">
<path d="M32.2916 45.8334V44.7917C32.2916 42.4905 34.2335 40.6261 36.2964 39.6063C38.3012 38.6155 39.988 36.9815 40.201 35.0653L40.6249 31.2501L44.7916 29.1667L39.5833 21.3542C39.5833 11.8619 31.888 4.16675 22.3958 4.16675C12.9034 4.16675 5.20825 11.8619 5.20825 21.3542C5.20825 27.1624 8.08915 32.2976 12.4999 35.4088M12.4999 35.4088V45.8334M12.4999 35.4088C14.0638 36.512 15.82 37.3607 17.7083 37.8949" stroke="white" stroke-width="3.5" stroke-linecap="round" stroke-linejoin="round"/>
<path d="M23.5576 24.9999L20.5146 15.581C20.3233 14.9888 19.7363 14.5833 19.0704 14.5833C18.4046 14.5833 17.8176 14.9888 17.6263 15.581L14.5833 24.9999M29.1666 14.5833V24.9999M15.705 21.8749H22.4358" stroke="white" stroke-width="2.5" stroke-linecap="round" stroke-linejoin="round"/>
</svg>
