<svg width="40" height="40" viewBox="0 0 40 40" fill="none" xmlns="http://www.w3.org/2000/svg">
<path d="M13.3333 30.0002L16.6666 26.6668C17.1209 26.2125 17.3481 25.9853 17.5933 25.8638C18.0596 25.6328 18.6069 25.6328 19.0733 25.8638C19.3184 25.9853 19.5456 26.2125 19.9999 26.6668C20.4543 27.1212 20.6814 27.3483 20.9266 27.4698C21.3929 27.7008 21.9403 27.7008 22.4066 27.4698C22.6518 27.3483 22.8789 27.1212 23.3333 26.6668L26.6666 23.3335" stroke="white" stroke-width="1.5" stroke-linecap="round" stroke-linejoin="round"/>
<path d="M5 16.667H35" stroke="white" stroke-width="2.5" stroke-linecap="round" stroke-linejoin="round"/>
<path d="M26.6666 3.3335V10.0002M13.3333 3.3335V10.0002" stroke="white" stroke-width="1.5" stroke-linecap="round" stroke-linejoin="round"/>
<path d="M21.6667 6.6665H18.3333C12.0479 6.6665 8.90525 6.6665 6.95262 8.61912C5 10.5718 5 13.7144 5 19.9998V23.3332C5 29.6185 5 32.7613 6.95262 34.7138C8.90525 36.6665 12.0479 36.6665 18.3333 36.6665H21.6667C27.952 36.6665 31.0948 36.6665 33.0473 34.7138C35 32.7613 35 29.6185 35 23.3332V19.9998C35 13.7144 35 10.5718 33.0473 8.61912C31.0948 6.6665 27.952 6.6665 21.6667 6.6665Z" stroke="white" stroke-width="2.5" stroke-linecap="round" stroke-linejoin="round"/>
</svg>
