<svg width="40" height="40" viewBox="0 0 40 40" fill="none" xmlns="http://www.w3.org/2000/svg">
<path d="M13.3333 29.9999L16.6666 26.6666C17.1209 26.2123 17.3481 25.9851 17.5933 25.8636C18.0596 25.6326 18.6069 25.6326 19.0733 25.8636C19.3184 25.9851 19.5456 26.2123 19.9999 26.6666C20.4543 27.1209 20.6814 27.3481 20.9266 27.4696C21.3929 27.7006 21.9403 27.7006 22.4066 27.4696C22.6518 27.3481 22.8789 27.1209 23.3333 26.6666L26.6666 23.3333" stroke="white" stroke-width="1.5" stroke-linecap="round" stroke-linejoin="round"/>
<path d="M5 16.6667H35" stroke="white" stroke-width="2.5" stroke-linecap="round" stroke-linejoin="round"/>
<path d="M26.6666 3.33325V9.99992M13.3333 3.33325V9.99992" stroke="white" stroke-width="1.5" stroke-linecap="round" stroke-linejoin="round"/>
<path d="M21.6667 6.66675H18.3333C12.0479 6.66675 8.90525 6.66675 6.95262 8.61936C5 10.572 5 13.7147 5 20.0001V23.3334C5 29.6187 5 32.7616 6.95262 34.7141C8.90525 36.6667 12.0479 36.6667 18.3333 36.6667H21.6667C27.952 36.6667 31.0948 36.6667 33.0473 34.7141C35 32.7616 35 29.6187 35 23.3334V20.0001C35 13.7147 35 10.572 33.0473 8.61936C31.0948 6.66675 27.952 6.66675 21.6667 6.66675Z" stroke="white" stroke-width="2.5" stroke-linecap="round" stroke-linejoin="round"/>
</svg>
