<svg width="40" height="40" viewBox="0 0 40 40" fill="none" xmlns="http://www.w3.org/2000/svg">
<path d="M3.7601 26.0538C3.8167 25.5152 4.20706 25.081 4.98777 24.2128L6.70622 22.2917C7.12627 21.7598 7.42435 20.8335 7.42435 19.9998C7.42435 19.1668 7.12617 18.2402 6.70617 17.7085L4.98777 15.7873C4.20706 14.9191 3.81669 14.485 3.7601 13.9463C3.7035 13.4076 3.9951 12.9015 4.57829 11.8895L5.40092 10.4618C6.02309 9.38208 6.33416 8.84221 6.86346 8.62695C7.39276 8.41166 7.99136 8.58155 9.18859 8.92128L11.2223 9.49411C11.9867 9.67036 12.7886 9.57038 13.4865 9.2118L14.048 8.88785C14.6464 8.50453 15.1068 7.93936 15.3616 7.27505L15.9182 5.61273C16.2841 4.51271 16.4671 3.9627 16.9027 3.6481C17.3383 3.3335 17.917 3.3335 19.0742 3.3335H20.9322C22.0895 3.3335 22.6682 3.3335 23.1037 3.6481C23.5393 3.9627 23.7223 4.51271 24.0883 5.61273L24.6448 7.27505C24.8997 7.93936 25.36 8.50453 25.9585 8.88785L26.52 9.2118C27.2178 9.57038 28.0198 9.67036 28.7842 9.49411L30.8178 8.92128C32.015 8.58155 32.6137 8.41166 33.143 8.62695C33.6723 8.84221 33.9833 9.38208 34.6055 10.4618L35.4282 11.8895C36.0113 12.9015 36.3028 13.4076 36.2463 13.9463C36.1897 14.485 35.7993 14.9191 35.0187 15.7873L33.3002 17.7085C32.8803 18.2402 32.582 19.1668 32.582 19.9998C32.582 20.8335 32.8802 21.7598 33.3002 22.2917L35.0187 24.2128C35.7993 25.081 36.1897 25.5152 36.2463 26.0538C36.3028 26.5927 36.0113 27.0987 35.4282 28.1107L34.6055 29.5383C33.9833 30.618 33.6723 31.158 33.143 31.3732C32.6137 31.5885 32.015 31.4187 30.8178 31.0788L28.7842 30.506C28.0197 30.3297 27.2177 30.4298 26.5197 30.7885L25.9583 31.1125C25.3598 31.4958 24.8997 32.0608 24.645 32.7252L24.0883 34.3877C23.7223 35.4877 23.5393 36.0377 23.1037 36.3522C22.6682 36.6668 22.0895 36.6668 20.9322 36.6668H19.0742C17.917 36.6668 17.3383 36.6668 16.9027 36.3522C16.4671 36.0377 16.2841 35.4877 15.9182 34.3877" stroke="white" stroke-width="2.5" stroke-linecap="round"/>
<path d="M4.56168 31.2998C6.36168 29.4998 12.4817 23.4398 13.0817 22.7398C13.716 21.9998 13.2017 20.9998 13.5077 17.8998C13.6557 16.3998 13.9784 15.2761 14.9017 14.4398C16.0017 13.3998 16.9017 13.3998 20.0017 13.3298C22.7017 13.3998 23.0217 13.0998 23.3017 13.7998C23.5017 14.2998 22.9017 14.5998 22.1817 15.3998C20.5817 16.9998 19.6417 17.7998 19.5517 18.2998C18.9017 20.4998 21.4617 21.7998 22.8617 20.3998C23.3911 19.8703 25.8417 17.3998 26.0817 17.1998C26.2617 17.0398 26.6926 17.0475 26.9017 17.2998C27.0817 17.4767 27.1017 17.4998 27.0817 18.2998C27.0632 19.0403 27.0714 20.1035 27.0737 21.1998C27.0766 22.6203 27.0017 24.1998 26.4017 24.9998C25.2017 26.7998 23.2017 26.8998 21.4017 26.9798C19.7017 27.0798 18.3017 26.8998 17.8617 27.2198C17.5017 27.3998 15.6017 29.3998 13.3017 31.6998L9.20168 35.7998C5.80168 38.4998 2.06168 34.2998 4.56168 31.2998Z" stroke="white" stroke-width="1.5" stroke-linecap="round"/>
</svg>
