<svg width="208" height="75" viewBox="0 0 208 75" fill="none" xmlns="http://www.w3.org/2000/svg">
<g clip-path="url(#clip0_152_280)">
<path d="M45.4515 0.999882C46.1125 1.66352 46.4475 2.51298 46.4475 3.54825C46.4475 4.58353 46.1125 5.43299 45.4515 6.09663C44.7905 6.76026 43.9444 7.09651 42.9132 7.09651H27.0929V53.8697C27.0929 54.9493 26.7227 55.8607 25.9912 56.6039C25.2597 57.3472 24.3431 57.71 23.2678 57.71C22.1925 57.71 21.2847 57.3384 20.5444 56.6039C19.8041 55.8695 19.4427 54.9581 19.4427 53.8697V7.09651H3.53424C2.50305 7.09651 1.65695 6.76026 0.995932 6.09663C0.334915 5.43299 0 4.58353 0 3.54825C0 2.51298 0.334915 1.66352 0.995932 0.999882C1.65695 0.336243 2.50305 0 3.53424 0H42.9132C43.9444 0 44.7905 0.336243 45.4515 0.999882Z" fill="white"/>
<path d="M50.819 9.27311C49.8583 8.30862 49.3824 7.16716 49.3824 5.83989C49.3824 4.51261 49.8583 3.3623 50.819 2.40666C51.7797 1.44218 52.9166 0.964355 54.2386 0.964355C55.5607 0.964355 56.7064 1.44218 57.6583 2.40666C58.619 3.37115 59.0949 4.51261 59.0949 5.83989C59.0949 7.16716 58.619 8.31747 57.6583 9.27311C56.6976 10.2376 55.5607 10.7154 54.2386 10.7154C52.9166 10.7154 51.7708 10.2376 50.819 9.27311ZM51.5593 56.6392C50.8454 55.9225 50.4929 55.0288 50.4929 53.9404V21.0593C50.4929 19.9267 50.8454 19.0153 51.5593 18.3251C52.2732 17.635 53.1634 17.2899 54.2475 17.2899C55.3315 17.2899 56.2834 17.635 56.9708 18.3251C57.6583 19.0153 58.002 19.9267 58.002 21.0593V53.9404C58.002 55.0288 57.6583 55.9225 56.9708 56.6392C56.2834 57.3559 55.3756 57.7099 54.2475 57.7099C53.1193 57.7099 52.2732 57.3559 51.5593 56.6392Z" fill="white"/>
<path d="M98.8881 19.6968C101.999 21.493 104.449 23.9618 106.212 27.0853C107.975 30.2177 108.865 33.6951 108.865 37.5442C108.865 41.3933 108.045 44.8708 106.397 48.0032C104.749 51.1355 102.493 53.5866 99.6285 55.3563C96.7553 57.126 93.5559 58.0197 90.0217 58.0197C87.1749 58.0197 84.522 57.4268 82.0719 56.25C79.6217 55.0643 77.5329 53.4185 75.8142 51.2948V71.2482C75.8142 72.3808 75.4705 73.2922 74.783 73.9824C74.0956 74.6726 73.1878 75.0177 72.0597 75.0177C70.9315 75.0177 70.0854 74.6726 69.3715 73.9824C68.6576 73.2922 68.3051 72.3808 68.3051 71.2482V37.5531C68.3051 33.7128 69.2041 30.2265 70.9932 27.0941C72.7824 23.9618 75.2149 21.5019 78.282 19.7056C81.3492 17.9094 84.7688 17.0068 88.5498 17.0068C92.3308 17.0068 95.7769 17.9094 98.8881 19.7056V19.6968ZM95.2041 49.5428C97.1871 48.3394 98.7647 46.6847 99.9105 44.5877C101.065 42.4906 101.638 40.1457 101.638 37.5265C101.638 34.9074 101.056 32.5537 99.9105 30.43C98.7559 28.3152 97.1871 26.6517 95.2041 25.4395C93.221 24.2361 91 23.6255 88.541 23.6255C86.082 23.6255 83.8698 24.2272 81.878 25.4395C79.8949 26.6517 78.3349 28.3064 77.2068 30.43C76.0786 32.5448 75.5146 34.9162 75.5146 37.5265C75.5146 40.1368 76.0786 42.4906 77.2068 44.5877C78.3349 46.6847 79.8949 48.3306 81.878 49.5428C83.861 50.7462 86.082 51.3568 88.541 51.3568C91 51.3568 93.2122 50.7551 95.2041 49.5428Z" fill="white"/>
<path d="M121.592 56.4536C118.648 55.4183 116.339 54.0645 114.673 52.3922C114.039 51.7551 113.713 50.9852 113.713 50.1004C113.713 48.9147 114.206 47.9591 115.184 47.2158C116.119 46.5256 116.974 46.1805 117.758 46.1805C118.736 46.1805 119.671 46.6229 120.552 47.5078C121.486 48.5431 122.879 49.4456 124.747 50.2066C126.616 50.9675 128.599 51.348 130.705 51.348C133.499 51.348 135.676 50.8791 137.218 49.9411C138.761 49.0032 139.536 47.7467 139.536 46.1717C139.536 44.5966 138.778 43.3755 137.254 42.3668C135.729 41.3581 133.155 40.5086 129.524 39.8184C120.102 37.9956 115.396 34.1023 115.396 28.1472C115.396 25.7316 116.11 23.6876 117.529 22.0152C118.948 20.3428 120.816 19.0864 123.125 18.2457C125.435 17.4051 127.885 16.9893 130.485 16.9893C133.675 16.9893 136.531 17.5025 139.06 18.5377C141.59 19.573 143.591 20.9976 145.062 22.8204C145.697 23.6079 146.023 24.3955 146.023 25.183C146.023 26.0236 145.609 26.7846 144.772 27.4747C144.234 27.8729 143.546 28.0676 142.709 28.0676C141.431 28.0676 140.277 27.5986 139.254 26.6607C138.029 25.5281 136.725 24.7317 135.35 24.2627C133.975 23.7938 132.309 23.5637 130.344 23.5637C128.087 23.5637 126.237 23.9442 124.782 24.7052C123.337 25.4661 122.614 26.5368 122.614 27.9172C122.614 28.8994 122.861 29.7311 123.355 30.3948C123.848 31.0584 124.774 31.6778 126.148 32.2441C127.523 32.8104 129.506 33.3679 132.106 33.9076C137.456 34.9871 141.246 36.4914 143.476 38.4115C145.706 40.3316 146.825 42.8181 146.825 45.8708C146.825 48.136 146.208 50.1977 144.983 52.0382C143.758 53.8876 141.951 55.3387 139.572 56.4005C137.192 57.4624 134.336 57.9933 130.996 57.9933C127.656 57.9933 124.518 57.4801 121.574 56.4448L121.592 56.4536Z" fill="white"/>
<path d="M199.715 9.27311C198.755 8.30862 198.279 7.16716 198.279 5.83989C198.279 4.51261 198.755 3.3623 199.715 2.40666C200.676 1.44218 201.813 0.964355 203.135 0.964355C204.457 0.964355 205.603 1.44218 206.555 2.40666C207.515 3.37115 207.991 4.51261 207.991 5.83989C207.991 7.16716 207.515 8.31747 206.555 9.27311C205.594 10.2376 204.457 10.7154 203.135 10.7154C201.813 10.7154 200.667 10.2376 199.715 9.27311ZM200.456 56.6392C199.742 55.9225 199.389 55.0288 199.389 53.9404V21.0593C199.389 19.9267 199.742 19.0153 200.456 18.3251C201.169 17.635 202.06 17.2899 203.144 17.2899C204.228 17.2899 205.18 17.635 205.867 18.3251C206.555 19.0153 206.898 19.9267 206.898 21.0593V53.9404C206.898 55.0288 206.555 55.9225 205.867 56.6392C205.18 57.3559 204.272 57.7099 203.144 57.7099C202.016 57.7099 201.169 57.3559 200.456 56.6392Z" fill="white"/>
<path d="M176.967 37.5799C176.967 37.5799 176.967 37.5622 176.967 37.5534C176.959 34.1556 174.226 31.3948 170.877 31.3948C167.528 31.3948 164.787 34.1644 164.787 37.5711C164.787 37.8985 164.778 38.2259 164.743 38.5444C164.743 38.6418 164.734 38.7302 164.725 38.8187C164.717 38.9691 164.708 39.1019 164.681 39.2434C164.558 40.2168 164.329 41.1547 164.003 42.0484C163.941 42.2342 163.862 42.4289 163.782 42.6147C163.439 43.4376 163.024 44.2075 162.54 44.933C162.319 45.2516 162.108 45.5524 161.852 45.8533C161.852 45.8533 161.849 45.8592 161.843 45.871C161.72 46.0037 161.605 46.1453 161.482 46.278C161.341 46.4461 161.182 46.6143 161.024 46.7735C160.883 46.924 160.733 47.0655 160.574 47.2071C160.222 47.5434 159.852 47.8531 159.455 48.1274C160.089 48.8264 160.777 49.4546 161.508 50.0209C162.231 49.4546 162.919 48.7998 163.544 48.1008C166.003 45.2958 167.511 41.6148 167.511 37.5711C167.511 37.5711 167.511 37.5622 167.511 37.5534C167.519 35.6775 169.026 34.1556 170.877 34.1556C172.728 34.1556 174.235 35.6863 174.244 37.5622C174.244 37.5622 174.244 37.5622 174.244 37.5711C174.244 42.3316 172.781 46.7647 170.287 50.4103C169.679 51.3128 169 52.1711 168.26 52.9675C167.713 53.5692 167.132 54.1355 166.515 54.6664C165.748 54.4806 164.999 54.2328 164.258 53.932H164.249C163.306 53.5426 162.39 53.0648 161.517 52.4985C161.35 52.4012 161.182 52.2862 161.033 52.18C160.601 51.888 160.169 51.5606 159.763 51.2066C159.014 50.6049 158.327 49.9325 157.71 49.198C157.586 49.0741 157.481 48.9414 157.375 48.8175C157.04 48.4105 156.723 47.9858 156.432 47.5522C155.912 46.7912 155.454 45.9949 155.066 45.1631C154.775 44.5526 154.519 43.9155 154.299 43.2784C153.999 42.3935 153.761 41.4733 153.603 40.553C153.426 39.5708 153.33 38.571 153.321 37.5711V37.518C153.33 33.368 154.775 29.342 157.384 26.1653C157.868 25.5813 157.789 24.7053 157.207 24.2187C156.626 23.732 155.771 23.8116 155.286 24.3956C152.316 28.0147 150.659 32.5894 150.606 37.3145C150.606 37.3145 150.606 37.3233 150.606 37.3322C150.597 37.3764 150.597 37.403 150.597 37.4472V37.6153C150.606 38.8895 150.738 40.1371 150.985 41.3671V41.4113L150.994 41.4202C151.126 42.19 151.329 42.9333 151.567 43.6854C151.567 43.6854 151.576 43.7385 151.584 43.7562C151.805 44.4375 152.052 45.1189 152.351 45.7825C152.739 46.685 153.206 47.5611 153.717 48.4017C154.105 49.0211 154.528 49.6316 154.995 50.2156C154.995 50.2245 155.004 50.2245 155.004 50.2245C155.101 50.3483 155.189 50.4811 155.295 50.6049C155.841 51.2686 156.441 51.8968 157.058 52.4808C157.622 53.0206 158.212 53.5249 158.82 53.9762C159.041 54.1443 159.27 54.3125 159.499 54.4717C160.16 54.923 160.856 55.3389 161.561 55.7017C162.284 56.091 163.033 56.4273 163.8 56.7104C164.911 57.1351 166.056 57.4448 167.228 57.666C168.066 57.0113 168.877 56.2945 169.635 55.5159C170.586 54.5425 171.459 53.5161 172.226 52.4189C175.302 48.1274 176.959 42.9775 176.959 37.5622L176.967 37.5799Z" fill="#C92127"/>
<path d="M191.148 37.5797C191.148 32.7661 189.483 28.0852 186.451 24.4043C185.235 22.9177 183.816 21.617 182.238 20.5375C179.25 18.4846 175.822 17.2989 172.226 17.0511V16.998H169.502V17.0511C166.003 17.29 162.645 18.4227 159.719 20.387C159.094 20.8029 158.917 21.6612 159.332 22.2983C159.746 22.9354 160.592 23.1124 161.218 22.6876C163.703 21.0241 166.541 20.0419 169.502 19.8119V21.8559C164.487 22.3072 159.94 25.2183 157.393 29.6868C157.014 30.3505 157.243 31.1911 157.886 31.5715C158.098 31.6954 158.336 31.7574 158.565 31.7574C159.032 31.7574 159.49 31.5096 159.746 31.0672C162.028 27.05 166.285 24.5547 170.86 24.5547C177.928 24.5547 183.683 30.3947 183.683 37.5708C183.683 40.8271 182.502 43.8798 180.449 46.2158C181.26 43.4463 181.674 40.5528 181.674 37.5885C181.674 37.5885 181.674 37.5797 181.674 37.5708C181.674 37.2346 181.656 36.8984 181.63 36.571C181.612 36.4117 181.586 36.2613 181.568 36.102C181.542 35.9339 181.524 35.7657 181.498 35.5976C181.462 35.403 181.418 35.2171 181.374 35.0313C181.348 34.9074 181.321 34.7747 181.286 34.6508C181.233 34.4562 181.172 34.2615 181.101 34.058C181.066 33.943 181.022 33.8279 180.986 33.7129C180.916 33.5182 180.837 33.3324 180.757 33.1466C180.704 33.0316 180.652 32.9165 180.599 32.7926C180.519 32.6157 180.431 32.4476 180.334 32.2794C180.264 32.1467 180.193 32.0228 180.114 31.8989C180.026 31.7485 179.938 31.6069 179.841 31.4565C179.744 31.3149 179.647 31.1734 179.541 31.0318C179.453 30.9079 179.365 30.784 179.268 30.6602C179.233 30.6159 179.206 30.5717 179.171 30.5274C179.162 30.5097 179.136 30.5097 179.127 30.492C178.986 30.3239 178.845 30.1469 178.695 29.9877C178.175 29.4391 177.311 29.4125 176.774 29.9434C176.227 30.4743 176.209 31.3415 176.729 31.8989C176.879 32.0582 177.029 32.2352 177.161 32.4122C177.232 32.5006 177.294 32.5891 177.364 32.6776C177.443 32.7838 177.523 32.89 177.593 33.005C177.664 33.1112 177.725 33.2174 177.796 33.3236C177.858 33.4209 177.91 33.5182 177.963 33.6156C178.034 33.7394 178.096 33.8633 178.157 33.996C178.201 34.0845 178.237 34.173 178.281 34.2615C178.342 34.4031 178.395 34.5358 178.448 34.6774C178.483 34.7659 178.51 34.8543 178.536 34.9428C178.58 35.0844 178.633 35.2348 178.668 35.3764C178.695 35.4737 178.713 35.5711 178.739 35.6596C178.774 35.8011 178.809 35.9427 178.827 36.0843C178.854 36.2082 178.862 36.3409 178.88 36.4648C178.898 36.5798 178.915 36.6948 178.924 36.8099C178.942 37.0576 178.959 37.3054 178.959 37.5531C178.959 44.4727 176.412 50.8082 172.226 55.6484C171.512 56.4624 170.763 57.2411 169.961 57.9578C170.26 57.9667 170.56 57.9755 170.86 57.9755H173.23C173.292 57.9755 173.345 57.9755 173.407 57.9667C173.574 57.949 173.75 57.9224 173.918 57.8959C176.888 57.4534 179.753 56.312 182.229 54.5954C183.807 53.507 185.226 52.2151 186.442 50.7286C189.465 47.0476 191.122 42.3756 191.131 37.5708C191.131 37.562 191.131 37.5531 191.131 37.5443L191.148 37.5797ZM184.362 48.9854C183.304 50.2685 182.07 51.4011 180.704 52.339C179.453 53.1885 178.087 53.8875 176.659 54.3919C177.311 53.4185 177.893 52.4098 178.413 51.3657C183.357 48.5784 186.416 43.3401 186.416 37.5708C186.416 37.0399 186.389 36.5179 186.336 36.0047C186.319 35.8277 186.283 35.6596 186.266 35.4914C186.222 35.1552 186.178 34.8101 186.116 34.4827C186.081 34.2792 186.019 34.0845 185.975 33.8899C185.904 33.5979 185.834 33.297 185.755 33.0139C185.693 32.8103 185.614 32.6068 185.543 32.4033C185.446 32.129 185.358 31.8635 185.252 31.5981C185.173 31.3946 185.076 31.1911 184.979 30.9964C184.864 30.7486 184.75 30.492 184.626 30.2531C184.521 30.0585 184.415 29.8638 184.3 29.6691C184.168 29.4302 184.027 29.2001 183.886 28.9701C183.763 28.7843 183.639 28.5984 183.507 28.4126C183.357 28.1914 183.199 27.9791 183.031 27.7667C182.89 27.5897 182.749 27.4216 182.599 27.2446C182.423 27.0411 182.256 26.8464 182.07 26.6518C181.912 26.4837 181.753 26.3332 181.595 26.174C181.409 25.9881 181.216 25.8112 181.013 25.643C180.845 25.4926 180.669 25.351 180.493 25.2095C180.29 25.0413 180.079 24.8821 179.867 24.7316C179.682 24.5989 179.497 24.4662 179.312 24.3423C179.092 24.2007 178.862 24.0592 178.633 23.9264C178.439 23.8114 178.245 23.6964 178.043 23.5902C177.805 23.4663 177.567 23.3513 177.32 23.2362C177.117 23.1389 176.915 23.0504 176.712 22.9619C176.456 22.8558 176.201 22.7673 175.945 22.6788C175.734 22.608 175.531 22.5284 175.311 22.4664C175.046 22.3868 174.773 22.316 174.491 22.2541C174.279 22.201 174.068 22.1479 173.847 22.1036C173.557 22.0505 173.266 22.0063 172.975 21.9709C172.763 21.9444 172.552 21.9001 172.34 21.8824C172.305 21.8824 172.261 21.8736 172.226 21.8647V19.8207C175.266 20.0596 178.175 21.0861 180.704 22.8292C182.07 23.7672 183.296 24.8998 184.353 26.1828C186.971 29.3683 188.416 33.4209 188.416 37.5885C188.416 41.7473 186.971 45.8088 184.362 48.9943V48.9854Z" fill="#159D90"/>
<path d="M166.294 52.1354C166.929 51.4895 167.511 50.817 168.039 50.1091C170.763 46.5343 172.235 42.1632 172.235 37.5708C172.235 36.801 171.626 36.1904 170.877 36.1904C170.128 36.1904 169.52 36.801 169.52 37.5708C169.52 41.9862 167.934 46.03 165.298 49.1358C164.69 49.8702 164.003 50.5604 163.271 51.1798C164.135 51.6753 165.06 52.0824 166.012 52.4009C166.118 52.3124 166.206 52.2239 166.303 52.1266L166.294 52.1354Z" fill="#C92127"/>
<path d="M157.489 32.5805C156.749 32.3946 156.018 32.8371 155.815 33.5715C155.506 34.8014 155.339 36.0756 155.33 37.3764C155.321 37.4118 155.321 37.4383 155.321 37.4737V37.5799C155.321 37.5799 155.321 37.6507 155.33 37.6861C155.348 39.2434 155.603 40.7388 156.035 42.1546C157.26 41.0308 158.036 39.3938 158.036 37.5799C158.036 36.465 158.177 35.35 158.45 34.2705C158.644 33.5361 158.212 32.784 157.481 32.5805H157.489Z" fill="#C92127"/>
<path d="M159.975 38.7476C159.86 39.5352 159.64 40.2873 159.323 40.9952C159.27 41.119 159.208 41.2518 159.138 41.3756C159.041 41.5615 158.944 41.7473 158.838 41.9243C158.767 42.0393 158.697 42.1543 158.609 42.2605C158.485 42.4375 158.362 42.6144 158.212 42.8003C157.965 43.1188 157.683 43.4108 157.384 43.6851C157.199 43.8532 157.014 44.0125 156.811 44.1629C157.199 45.0035 157.666 45.8088 158.195 46.552C158.23 46.5432 158.247 46.5166 158.274 46.4901C158.38 46.4193 158.485 46.3397 158.582 46.26C158.767 46.1096 158.953 45.9503 159.129 45.7999C159.173 45.7645 159.199 45.738 159.235 45.7026C159.42 45.5345 159.605 45.3486 159.772 45.1628C159.869 45.0655 159.957 44.9593 160.045 44.8708C160.107 44.8089 160.16 44.7381 160.213 44.6673C160.275 44.5965 160.336 44.5346 160.389 44.4549C160.468 44.3576 160.548 44.2514 160.618 44.1452C161.456 43.0215 162.081 41.7207 162.434 40.3227C162.487 40.1015 162.54 39.8891 162.575 39.6679C162.619 39.4467 162.645 39.2166 162.681 38.9866C162.698 38.8538 162.716 38.7122 162.734 38.5618C162.769 38.2433 162.778 37.9159 162.778 37.5796C162.778 33.0492 166.409 29.3682 170.868 29.3682C171.732 29.3682 172.587 29.5098 173.398 29.7753C173.539 29.8195 173.68 29.846 173.821 29.846C174.394 29.846 174.923 29.4744 175.117 28.8904C175.355 28.1648 174.958 27.3862 174.244 27.1472C173.16 26.7845 172.014 26.5986 170.86 26.5986C164.893 26.5986 160.037 31.5273 160.037 37.5796V37.5973C160.037 37.8097 160.028 38.0132 160.01 38.2344C160.001 38.4025 159.975 38.5795 159.957 38.7476H159.975Z" fill="#C92127"/>
</g>
<defs>
<clipPath id="clip0_152_280">
<rect width="208" height="75" fill="white"/>
</clipPath>
</defs>
</svg>
