<svg width="40" height="40" viewBox="0 0 40 40" fill="none" xmlns="http://www.w3.org/2000/svg">
<path d="M25 29.1649C25 30.7149 25 31.4899 24.8297 32.1258C24.3673 33.8513 23.0195 35.1989 21.2942 35.6613C20.6583 35.8316 19.8833 35.8316 18.3333 35.8316H15C10.2859 35.8316 7.92893 35.8316 6.46447 34.3673C5 32.9028 5 30.5458 5 25.8316V14.1685C5 9.4548 5 7.09797 6.46432 5.63352C7.92863 4.16909 10.2855 4.16889 14.9992 4.16849L18.336 4.16822C19.883 4.16809 20.6567 4.16802 21.2913 4.3377C23.0188 4.79954 24.3683 6.14882 24.8303 7.87634C25 8.51105 25 9.2846 25 10.8317" stroke="white" stroke-width="2.5" stroke-linecap="round" stroke-linejoin="round"/>
<path d="M25 32.5018C29.714 32.5018 32.071 32.5018 33.5355 31.0373C35 29.5728 35 27.2158 35 22.5018V17.5018C35 12.7877 35 10.4306 33.5355 8.96618C32.071 7.50171 29.714 7.50171 25 7.50171" stroke="white" stroke-width="2.5" stroke-linecap="round" stroke-linejoin="round"/>
<path d="M26.6667 20.0017H15M24.1668 15.835C24.1668 15.835 28.3333 18.9037 28.3333 20.0017C28.3333 21.0997 24.1667 24.1684 24.1667 24.1684" stroke="white" stroke-width="1.5" stroke-linecap="round" stroke-linejoin="round"/>
</svg>
