<svg width="40" height="40" viewBox="0 0 40 40" fill="none" xmlns="http://www.w3.org/2000/svg">
<path d="M27.6604 27.6604C23.4297 31.8911 16.5704 31.8911 12.3398 27.6604C8.10908 23.4297 8.10908 16.5704 12.3398 12.3398C14.8803 9.79918 18.3687 8.78427 21.6667 9.29497" stroke="white" stroke-width="1.5" stroke-linecap="round"/>
<path d="M19.9999 19.9999L28.2494 11.7503C29.9714 10.0284 30.8324 9.16739 30.6444 7.91947C30.4564 6.67155 29.5636 6.19959 27.7778 5.25564C25.4559 4.02824 22.8091 3.33325 19.9999 3.33325C10.7952 3.33325 3.33325 10.7952 3.33325 19.9999C3.33325 29.2046 10.7952 36.6666 19.9999 36.6666C29.2046 36.6666 36.6666 29.2046 36.6666 19.9999C36.6666 17.6296 36.1718 15.3748 35.2798 13.3333" stroke="white" stroke-width="1.5" stroke-linecap="round"/>
</svg>
