<svg width="40" height="40" viewBox="0 0 40 40" fill="none" xmlns="http://www.w3.org/2000/svg">
<path d="M18.0642 32.9384H27.4451C32.2206 32.9384 34.6084 32.9384 35.7702 31.6729C36.0962 31.3178 36.3487 30.9066 36.5144 30.4609C37.1044 28.8731 35.9449 26.8728 33.6256 22.8723M18.0642 32.9384L22.9272 29.2103M18.0642 32.9384L22.9272 36.6666M30.8159 18.0256L25.8449 9.45075C23.7176 5.78108 22.6539 3.94627 21.1671 3.50215C20.4132 3.27695 19.6056 3.27695 18.8517 3.50215C17.3649 3.94627 16.3013 5.78108 14.1739 9.45075M30.8159 18.0256L25.0194 15.844M30.8159 18.0256L31.7646 12.1272M11.3642 14.2974L6.22561 23.1613C4.05876 26.8991 2.97533 28.7679 3.43915 30.2688C3.61968 30.8531 3.9469 31.3859 4.39215 31.8209C5.53596 32.9384 7.76688 32.9384 12.2287 32.9384M11.3642 14.2974L12.2669 20.2024M11.3642 14.2974L5.5508 16.4376" stroke="white" stroke-width="2" stroke-linecap="round" stroke-linejoin="round"/>
</svg>
