<svg width="40" height="40" viewBox="0 0 40 40" fill="none" xmlns="http://www.w3.org/2000/svg">
<path d="M32.8474 12.7506C33.1094 12.4886 33.5607 12.4619 33.8261 12.7515C35.3806 14.447 36.2409 15.7024 36.5242 17.0928C36.6872 17.8928 36.7104 18.7069 36.5927 19.4989C36.2747 21.6393 34.5406 23.3734 31.0722 26.8418L26.8417 31.0723C23.3734 34.5406 21.6392 36.2748 19.4989 36.5928C18.7069 36.7104 17.8927 36.6873 17.0927 36.5243C15.7026 36.2409 14.4473 35.3808 12.752 33.8266C12.4621 33.5609 12.4889 33.1091 12.7511 32.8469C14.2115 31.3866 14.1421 28.9496 12.5962 27.4036C11.0503 25.8578 8.61328 25.7884 7.15297 27.2488C6.89077 27.5109 6.43893 27.5378 6.17316 27.2478C4.61901 25.5526 3.75885 24.2973 3.47557 22.9071C3.31257 22.1071 3.28938 21.2929 3.40707 20.5009C3.72513 18.3606 5.45926 16.6264 8.92753 13.1581L13.1581 8.92753C16.6264 5.45927 18.3606 3.72514 20.5009 3.40705C21.2929 3.28939 22.1071 3.31257 22.9071 3.47557C24.2974 3.75889 25.5529 4.6192 27.2484 6.1737C27.5379 6.43917 27.5112 6.89045 27.2492 7.15237C25.7889 8.61267 25.8584 11.0497 27.4042 12.5956C28.9501 14.1415 31.3872 14.2109 32.8474 12.7506Z" stroke="white" stroke-width="2.5" stroke-linejoin="round"/>
<path d="M31.6667 24.9999L15 8.33325" stroke="white" stroke-width="1.5" stroke-linecap="round" stroke-linejoin="round"/>
</svg>
